<svg xmlns="http://www.w3.org/2000/svg" width="998.592" height="112.512" viewBox="0 0 998.592 112.512" class="LogoHeader_icon__2kmzn"><path fill="currentColor" d="M1.44 78.05v11.04s1.63.96 4.8.96c13.34 0 14.88-11.71 15.46-33.7l.67-24.96H38.3v57.7h11.62V22.37h-38.4l-.86 34.17c-.39 15.17-.58 22.37-5.96 22.37-2.3 0-3.26-.86-3.26-.86zM59.52 40.8v48.29H69.7l17.47-29.86v29.86h11.04V40.8H88.03L70.56 70.66V40.8zm48.29 48.29h32.16v11.04h10.56V80.06h-5.09V40.8h-11.42v39.26h-14.79V40.8h-11.42zm85.44-3.27v-9.31c-3.55 2.4-9.51 4.51-15.07 4.51-8.36 0-11.52-3.93-12-12h27.55v-6.04c0-16.8-7.39-23.14-18.82-23.14-13.92 0-20.54 10.66-20.54 25.25 0 16.8 8.25 24.96 22.85 24.96 7.29 0 12.67-1.92 16.03-4.23zm-18.53-36.96c5.66 0 7.39 4.71 7.39 10.76v.96h-15.93c.28-7.68 3.07-11.72 8.54-11.72zm46.18-14.4c9.02 0 13.53-5.37 13.53-12.09h-9.6c0 3.17-1.53 4.8-3.93 4.8-2.6 0-4.32-1.54-4.32-4.8h-9.6c0 6.81 4.7 12.09 13.92 12.09zm-19.49 6.34v48.29h10.17l17.48-29.86v29.86h11.04V40.8h-10.18l-17.47 29.86V40.8zm113.57 48.29l-17.57-66.72h-14.69l-17.66 66.72h10.46l3.74-14.59h19.97l3.65 14.59zm-33.41-23.62l7.77-29.95 7.59 29.95zm67.97 23.62h12.96l-18.34-25.63 16.13-22.66h-11.52l-16.13 22.66V40.8h-11.42v48.29h11.42V65.76zm51.93-32.93c0-11.71-5.95-16.13-18.05-16.13-7.58 0-13.53 2.4-16.99 4.42v9.5c3.07-2.3 9.79-4.8 15.65-4.8 5.47 0 7.97 1.92 7.97 7.11v2.68h-1.83c-17.47 0-25.24 5.76-25.24 15.56 0 9.79 5.95 15.26 14.78 15.26 6.72 0 9.6-2.21 11.81-4.51h.48c.09 1.25.48 2.88.86 3.84h11.14c-.39-3.94-.58-7.87-.58-11.81zm-11.42 21.41c-1.44 2.11-4.13 3.84-8.16 3.84-4.8 0-7.2-2.69-7.2-6.82 0-5.47 3.93-7.49 13.73-7.49h1.63zm63.07 2.49h-5.09V40.8h-33.31v4.13c0 11.81-.77 27.07-4.8 35.13h-3.55v20.07h10.56V89.09h25.63v11.04h10.56zm-16.51 0h-16.13c3.17-7.29 4.03-20.44 4.03-28.8v-1.44h12.1zm59.23 5.76v-9.31c-3.55 2.4-9.5 4.51-15.07 4.51-8.35 0-11.52-3.93-12-12h27.55v-6.04c0-16.8-7.39-23.14-18.82-23.14-13.92 0-20.54 10.66-20.54 25.25 0 16.8 8.26 24.96 22.85 24.96 7.29 0 12.67-1.92 16.03-4.23zm-18.53-36.96c5.67 0 7.39 4.71 7.39 10.76v.96h-15.93c.29-7.68 3.07-11.72 8.54-11.72zm67.87 40.23h11.14l-.19-48.29h-15.65l-10.46 32.16-9.41-32.16H504v48.29h9.7v-36.1l10.46 36.1h9.31l11.71-36.1zm20.74-48.29v48.29h10.18l17.47-29.86v29.86h11.04V40.8h-10.18l-17.47 29.86V40.8zm48.29 0v48.29h10.17l17.48-29.86v29.86h11.04V40.8h-10.18l-17.47 29.86V40.8zm100.41 48.29h11.62V22.37h-16.9c-16.99 0-25.92 8.73-25.92 21.6 0 10.27 4.9 16.32 13.64 22.56l-15.17 22.56h12.57l16.9-25.25-5.86-3.94c-7.1-4.8-10.56-8.54-10.56-16.6 0-7.11 5-11.91 14.5-11.91h5.18zm223.97.96c5.28 0 9.03-.96 11.81-2.98v-9.31c-2.88 2.02-6.34 3.26-11.14 3.26-8.16 0-11.52-6.33-11.52-16.32 0-10.46 4.13-15.84 11.62-15.84 4.42 0 8.74 1.54 11.04 2.98v-9.7c-2.4-1.34-6.62-2.3-12.29-2.3-14.59 0-22.17 10.46-22.17 25.15 0 16.13 7.39 25.06 22.65 25.06zm-71.42-4.23v-9.31c-3.55 2.4-9.51 4.51-15.07 4.51-8.36 0-11.52-3.93-12-12h27.55v-6.04c0-16.8-7.39-23.14-18.82-23.14-13.92 0-20.54 10.66-20.54 25.25 0 16.8 8.25 24.96 22.85 24.96 7.29 0 12.67-1.92 16.03-4.23zm36.48 3.27h12.96l-18.34-25.63L914.4 40.8h-11.52l-16.13 22.66V40.8h-11.42v48.29h11.42V65.76zm-78.15-9.03h-5.08V40.8H787.1v4.13c0 11.81-.76 27.07-4.8 35.13h-3.55v20.07h10.56V89.09h25.63v11.04h10.56zM762.53 40.8v19.1h-15.27V40.8h-11.42v48.29h11.42V68.93h15.27v20.16h11.42V40.8zm86.11 8.06c5.66 0 7.39 4.71 7.39 10.76v.96H840.1c.28-7.68 3.07-11.72 8.54-11.72zm-39.65 31.2h-16.13c3.17-7.29 4.04-20.44 4.04-28.8v-1.44h12.09zm185.19-23.9c0-11.71-5.96-16.13-18.05-16.13-7.59 0-13.54 2.4-16.99 4.42v9.5c3.07-2.3 9.79-4.8 15.64-4.8 5.48 0 7.97 1.92 7.97 7.11v2.68h-1.82c-17.47 0-25.25 5.76-25.25 15.56 0 9.79 5.95 15.26 14.78 15.26 6.72 0 9.6-2.21 11.81-4.51h.48c.1 1.25.48 2.88.87 3.84h11.13c-.38-3.94-.57-7.87-.57-11.81zm-11.43 21.41c-1.44 2.11-4.13 3.84-8.16 3.84-4.8 0-7.2-2.69-7.2-6.82 0-5.47 3.94-7.49 13.73-7.49h1.63z"></path></svg>